<svg xmlns="http://www.w3.org/2000/svg" viewBox="0 0 1200 420" width="1200" height="420" fill="none" role="img" aria-label="Iron Dome honeycomb arc">
<title>Miklat dome arc</title>
<path d="M187.8,359.0 L214.6,374.5 L214.6,405.5 L187.8,421.0 L160.9,405.5 L160.9,374.5Z" fill="none" stroke="#3ee6ff" stroke-width="1.5" opacity="0.075"></path>
<path d="M246.7,359.0 L273.5,374.5 L273.5,405.5 L246.7,421.0 L219.8,405.5 L219.8,374.5Z" fill="none" stroke="#3ee6ff" stroke-width="1.5" opacity="0.078"></path>
<path d="M953.3,359.0 L980.2,374.5 L980.2,405.5 L953.3,421.0 L926.5,405.5 L926.5,374.5Z" fill="none" stroke="#3ee6ff" stroke-width="1.5" opacity="0.078"></path>
<path d="M1012.2,359.0 L1039.1,374.5 L1039.1,405.5 L1012.2,421.0 L985.4,405.5 L985.4,374.5Z" fill="none" stroke="#3ee6ff" stroke-width="1.5" opacity="0.075"></path>
<path d="M217.2,308.0 L244.1,323.5 L244.1,354.5 L217.2,370.0 L190.4,354.5 L190.4,323.5Z" fill="none" stroke="#3ee6ff" stroke-width="1.5" opacity="0.084"></path>
<path d="M276.1,308.0 L303.0,323.5 L303.0,354.5 L276.1,370.0 L249.3,354.5 L249.3,323.5Z" fill="none" stroke="#3ee6ff" stroke-width="1.5" opacity="0.089"></path>
<path d="M923.9,308.0 L950.7,323.5 L950.7,354.5 L923.9,370.0 L897.0,354.5 L897.0,323.5Z" fill="none" stroke="#3ee6ff" stroke-width="1.5" opacity="0.089"></path>
<path d="M982.8,308.0 L1009.6,323.5 L1009.6,354.5 L982.8,370.0 L955.9,354.5 L955.9,323.5Z" fill="none" stroke="#3ee6ff" stroke-width="1.5" opacity="0.084"></path>
<path d="M246.7,257.0 L273.5,272.5 L273.5,303.5 L246.7,319.0 L219.8,303.5 L219.8,272.5Z" fill="none" stroke="#3ee6ff" stroke-width="1.5" opacity="0.095"></path>
<path d="M305.6,257.0 L332.4,272.5 L332.4,303.5 L305.6,319.0 L278.7,303.5 L278.7,272.5Z" fill="none" stroke="#3ee6ff" stroke-width="1.5" opacity="0.103"></path>
<path d="M894.4,257.0 L921.3,272.5 L921.3,303.5 L894.4,319.0 L867.6,303.5 L867.6,272.5Z" fill="none" stroke="#3ee6ff" stroke-width="1.5" opacity="0.103"></path>
<path d="M953.3,257.0 L980.2,272.5 L980.2,303.5 L953.3,319.0 L926.5,303.5 L926.5,272.5Z" fill="none" stroke="#3ee6ff" stroke-width="1.5" opacity="0.095"></path>
<path d="M276.1,206.0 L303.0,221.5 L303.0,252.5 L276.1,268.0 L249.3,252.5 L249.3,221.5Z" fill="none" stroke="#3ee6ff" stroke-width="1.5" opacity="0.108"></path>
<path d="M335.0,206.0 L361.8,221.5 L361.8,252.5 L335.0,268.0 L308.1,252.5 L308.1,221.5Z" fill="none" stroke="#3ee6ff" stroke-width="1.5" opacity="0.119"></path>
<path d="M393.9,206.0 L420.7,221.5 L420.7,252.5 L393.9,268.0 L367.0,252.5 L367.0,221.5Z" fill="none" stroke="#3ee6ff" stroke-width="1.5" opacity="0.133"></path>
<path d="M806.1,206.0 L833.0,221.5 L833.0,252.5 L806.1,268.0 L779.3,252.5 L779.3,221.5Z" fill="none" stroke="#3ee6ff" stroke-width="1.5" opacity="0.133"></path>
<path d="M865.0,206.0 L891.9,221.5 L891.9,252.5 L865.0,268.0 L838.2,252.5 L838.2,221.5Z" fill="none" stroke="#3ee6ff" stroke-width="1.5" opacity="0.119"></path>
<path d="M923.9,206.0 L950.7,221.5 L950.7,252.5 L923.9,268.0 L897.0,252.5 L897.0,221.5Z" fill="none" stroke="#3ee6ff" stroke-width="1.5" opacity="0.108"></path>
<path d="M305.6,155.0 L332.4,170.5 L332.4,201.5 L305.6,217.0 L278.7,201.5 L278.7,170.5Z" fill="none" stroke="#3ee6ff" stroke-width="1.5" opacity="0.122"></path>
<path d="M364.4,155.0 L391.3,170.5 L391.3,201.5 L364.4,217.0 L337.6,201.5 L337.6,170.5Z" fill="none" stroke="#3ee6ff" stroke-width="1.5" opacity="0.135"></path>
<path d="M423.3,155.0 L450.2,170.5 L450.2,201.5 L423.3,217.0 L396.5,201.5 L396.5,170.5Z" fill="none" stroke="#3ee6ff" stroke-width="1.5" opacity="0.151"></path>
<path d="M482.2,155.0 L509.1,170.5 L509.1,201.5 L482.2,217.0 L455.4,201.5 L455.4,170.5Z" fill="none" stroke="#3ee6ff" stroke-width="1.5" opacity="0.171"></path>
<path d="M717.8,155.0 L744.6,170.5 L744.6,201.5 L717.8,217.0 L690.9,201.5 L690.9,170.5Z" fill="none" stroke="#3ee6ff" stroke-width="1.5" opacity="0.171"></path>
<path d="M776.7,155.0 L803.5,170.5 L803.5,201.5 L776.7,217.0 L749.8,201.5 L749.8,170.5Z" fill="none" stroke="#3ee6ff" stroke-width="1.5" opacity="0.151"></path>
<path d="M835.6,155.0 L862.4,170.5 L862.4,201.5 L835.6,217.0 L808.7,201.5 L808.7,170.5Z" fill="none" stroke="#3ee6ff" stroke-width="1.5" opacity="0.135"></path>
<path d="M894.4,155.0 L921.3,170.5 L921.3,201.5 L894.4,217.0 L867.6,201.5 L867.6,170.5Z" fill="none" stroke="#3ee6ff" stroke-width="1.5" opacity="0.122"></path>
<path d="M393.9,104.0 L420.7,119.5 L420.7,150.5 L393.9,166.0 L367.0,150.5 L367.0,119.5Z" fill="none" stroke="#3ee6ff" stroke-width="1.5" opacity="0.150"></path>
<path d="M452.8,104.0 L479.6,119.5 L479.6,150.5 L452.8,166.0 L425.9,150.5 L425.9,119.5Z" fill="none" stroke="#3ee6ff" stroke-width="1.5" opacity="0.167"></path>
<path d="M511.7,104.0 L538.5,119.5 L538.5,150.5 L511.7,166.0 L484.8,150.5 L484.8,119.5Z" fill="none" stroke="#3ee6ff" stroke-width="1.5" opacity="0.187"></path>
<path d="M570.6,104.0 L597.4,119.5 L597.4,150.5 L570.6,166.0 L543.7,150.5 L543.7,119.5Z" fill="none" stroke="#3ee6ff" stroke-width="1.5" opacity="0.209"></path>
<path d="M629.4,104.0 L656.3,119.5 L656.3,150.5 L629.4,166.0 L602.6,150.5 L602.6,119.5Z" fill="none" stroke="#3ee6ff" stroke-width="1.5" opacity="0.209"></path>
<path d="M688.3,104.0 L715.2,119.5 L715.2,150.5 L688.3,166.0 L661.5,150.5 L661.5,119.5Z" fill="none" stroke="#3ee6ff" stroke-width="1.5" opacity="0.187"></path>
<path d="M747.2,104.0 L774.1,119.5 L774.1,150.5 L747.2,166.0 L720.4,150.5 L720.4,119.5Z" fill="none" stroke="#3ee6ff" stroke-width="1.5" opacity="0.167"></path>
<path d="M806.1,104.0 L833.0,119.5 L833.0,150.5 L806.1,166.0 L779.3,150.5 L779.3,119.5Z" fill="none" stroke="#3ee6ff" stroke-width="1.5" opacity="0.150"></path>
</svg>